Coordinates
version=1
nRows=17
nColumns=24
inDegrees=yes

Units are S.I. units (second, meters, Newtons, ...)
Angles are in degrees.

endheader
time	pelvis_tilt	pelvis_list	pelvis_rotation	pelvis_tx	pelvis_ty	pelvis_tz	hip_flexion_r	hip_adduction_r	hip_rotation_r	knee_angle_r	ankle_angle_r	subtalar_angle_r	mtp_angle_r	hip_flexion_l	hip_adduction_l	hip_rotation_l	knee_angle_l	ankle_angle_l	subtalar_angle_l	mtp_angle_l	lumbar_extension	lumbar_bending	lumbar_rotation
      4.24000000	     11.47491209	     13.12163009	      3.06271240	      0.50279847	      0.75272264	     -0.24539295	     12.56050815	    -16.95563965	     -1.69505420	    -60.92911491	     31.36486366	      4.55688456	      0.00000000	    -13.16422358	     18.69257319	      9.12385431	     -9.12307589	     23.69627192	      1.80067633	      0.00000000	    -32.88831777	    -13.26128272	     -0.69089578
      4.24500000	     11.51635250	     13.11367492	      3.48353852	      0.51063718	      0.75269529	     -0.24557670	     13.23810642	    -17.00957610	     -1.95796805	    -59.66265453	     31.63490772	      4.80832721	      0.00000000	    -14.27515363	     18.45517345	      9.49111334	     -8.54197199	     23.88278171	      2.14134698	      0.00000000	    -33.10322898	    -13.09503542	     -1.12544935
      4.25000000	     11.55986543	     13.10951338	      3.91639788	      0.51847896	      0.75258929	     -0.24577764	     13.86604469	    -17.07574312	     -2.25098067	    -58.30628706	     31.84532188	      4.93640600	      0.00000000	    -15.37300564	     18.20668255	      9.79034389	     -7.98773981	     24.08870191	      2.51331266	      0.00000000	    -33.31984834	    -12.91814379	     -1.55849866
      4.25500000	     11.60589865	     13.12396494	      4.35221522	      0.52632157	      0.75240905	     -0.24596946	     14.44825980	    -17.16601473	     -2.56333489	    -56.86704829	     31.98752913	      4.95763257	      0.00000000	    -16.45847491	     17.96305961	     10.03918731	     -7.46331698	     24.31344378	      2.93932084	      0.00000000	    -33.54351622	    -12.75400001	     -1.99859778
      4.26000000	     11.65905275	     13.14865029	      4.79707226	      0.53414336	      0.75216510	     -0.24614802	     14.97811945	    -17.26969118	     -2.89471733	    -55.34827098	     32.06583935	      4.89680323	      0.00000000	    -17.53511418	     17.71166006	     10.23557430	     -6.96513134	     24.56849608	      3.42206190	      0.00000000	    -33.78470312	    -12.59358194	     -2.43160562
      4.26500000	     11.64945515	     13.19188176	      5.26723253	      0.54197819	      0.75180457	     -0.24632786	     15.52468238	    -17.41106693	     -3.27957907	    -53.74894983	     32.13462228	      4.72432196	      0.00000000	    -18.52390904	     17.47127367	     10.35028900	     -6.51076183	     24.78414621	      3.89750716	      0.00000000	    -33.96006792	    -12.45341374	     -2.88805532
      4.27000000	     11.68980730	     13.23858992	      5.73086776	      0.54979419	      0.75143633	     -0.24650143	     15.96394626	    -17.54724835	     -3.66509375	    -52.05978440	     32.11208884	      4.53422389	      0.00000000	    -19.55164427	     17.21659084	     10.44891668	     -6.08077398	     25.06998483	      4.47080021	      0.00000000	    -34.19305408	    -12.30199123	     -3.31120199
      4.27500000	     11.65789825	     13.30617748	      6.20910301	      0.55761637	      0.75095249	     -0.24667466	     16.43457170	    -17.72597345	     -4.10433753	    -50.29875923	     32.07192983	      4.26433358	      0.00000000	    -20.47285093	     16.98569789	     10.48002517	     -5.71095173	     25.30649338	      4.99043271	      0.00000000	    -34.35133035	    -12.17586350	     -3.77617253
      4.28000000	     11.62476237	     13.37912453	      6.68825917	      0.56543083	      0.75042889	     -0.24683848	     16.85207498	    -17.91024144	     -4.56595965	    -48.45700204	     31.97752352	      4.00039470	      0.00000000	    -21.37232107	     16.75039084	     10.49362481	     -5.37792415	     25.56039485	      5.54289181	      0.00000000	    -34.51010391	    -12.05080247	     -4.22090741
      4.28500000	     11.58443050	     13.45586541	      7.16596812	      0.57324939	      0.74986470	     -0.24698094	     17.22170603	    -18.09789739	     -5.05688574	    -46.53963929	     31.83681285	      3.75858274	      0.00000000	    -22.24223866	     16.51022483	     10.47689684	     -5.08317069	     25.82672350	      6.11842436	      0.00000000	    -34.66364874	    -11.93197769	     -4.65043636
      4.29000000	     11.52988802	     13.53493167	      7.63032598	      0.58108663	      0.74925610	     -0.24709663	     17.55481276	    -18.28699792	     -5.58215267	    -44.55287221	     31.65973271	      3.57016664	      0.00000000	    -23.07297032	     16.27086982	     10.43570522	     -4.82884946	     26.09147574	      6.69970326	      0.00000000	    -34.79534921	    -11.82216099	     -5.07087471
      4.29500000	     11.55716781	     13.60280402	      8.02567258	      0.58898582	      0.74868627	     -0.24717302	     17.74738880	    -18.44491031	     -6.13254224	    -42.48563461	     31.48285983	      3.50576618	      0.00000000	    -23.97330543	     16.01514081	     10.26167079	     -4.58381763	     26.33819237	      7.41511753	      0.00000000	    -34.99082004	    -11.70370999	     -5.41118145
      4.30000000	     11.38847629	     13.69092760	      8.51254284	      0.59684408	      0.74794308	     -0.24726985	     18.08958891	    -18.64760413	     -6.73137990	    -40.38932279	     31.21938872	      3.48113755	      0.00000000	    -24.61169541	     15.78994394	     10.28447063	     -4.47637794	     26.58689916	      7.88156453	      0.00000000	    -34.99981342	    -11.61888947	     -5.83154347
      4.30500000	     11.36563848	     13.78384528	      8.92792302	      0.60479456	      0.74730709	     -0.24732195	     18.21131848	    -18.83872736	     -7.42506356	    -38.23407022	     31.00006334	      3.69442540	      0.00000000	    -25.40474126	     15.54354528	     10.15236319	     -4.35151915	     26.80204115	      8.53721216	      0.00000000	    -35.14378684	    -11.52752353	     -6.21275591
      4.31000000	     11.22349912	     13.85561636	      9.37157458	      0.61276384	      0.74656443	     -0.24734893	     18.40868230	    -19.00087440	     -8.13409960	    -36.05683630	     30.71872580	      4.02388307	      0.00000000	    -26.01531249	     15.28986784	     10.12351969	     -4.33493992	     27.04230198	      9.04002870	      0.00000000	    -35.15415956	    -11.44010505	     -6.60071636
      4.31500000	     11.06115940	     13.90697728	      9.79913021	      0.62081213	      0.74580043	     -0.24734993	     18.57314417	    -19.13542378	     -8.92465058	    -33.86145228	     30.43131613	      4.55083296	      0.00000000	    -26.56455394	     15.01798588	     10.12584222	     -4.38912567	     27.27418842	      9.52472429	      0.00000000	    -35.11917667	    -11.35553192	     -6.89347217
      4.32000000	     11.01995267	     13.99899416	     10.18217588	      0.62893479	      0.74514823	     -0.24730036	     18.55315489	    -19.28791239	     -9.80041579	    -31.68090602	     30.18832906	      5.42057806	      0.00000000	    -27.23317020	     14.75331423	     10.03495610	     -4.46488859	     27.42549736	     10.12760797	      0.00000000	    -35.21325962	    -11.29152969	     -7.26064906
